<svg width="273" height="77" viewBox="0 0 273 77" fill="none" xmlns="http://www.w3.org/2000/svg">
<path d="M2.76 36.76C2.73333 36.5467 2.70667 36.2667 2.68 35.92C2.68 35.5733 2.68 35.1733 2.68 34.72C2.68 33.6267 2.70667 32.2933 2.76 30.72C2.84 29.12 2.93333 27.3867 3.04 25.52C3.14667 23.6267 3.26667 21.72 3.4 19.8C3.53333 17.8533 3.66667 15.9867 3.8 14.2C3.96 12.3867 4.10667 10.7733 4.24 9.36C3.81333 9.41333 3.4 9.46667 3 9.52L2.12 2.72C4.89333 2.34666 7.84 2.08 10.96 1.92C14.1067 1.76 17.1733 1.68 20.16 1.68C22.4 1.68 24.5467 1.73333 26.6 1.84C28.68 1.92 30.5467 2.04 32.2 2.2L31.6 8.84C30.3733 8.6 28.9733 8.44 27.4 8.36C25.8267 8.25333 24.1333 8.2 22.32 8.2C20.4533 8.2 18.52 8.25333 16.52 8.36C14.5467 8.44 12.6267 8.54667 10.76 8.68C10.6533 9.74667 10.5467 10.8533 10.44 12C10.36 13.1467 10.28 14.3333 10.2 15.56C11.5867 15.3733 13.12 15.24 14.8 15.16C16.5067 15.08 18.2 15.04 19.88 15.04C21.8 15.04 23.6 15.0933 25.28 15.2C26.9867 15.3067 28.2933 15.4933 29.2 15.76L28.72 22.2C26.8533 21.9867 25.1067 21.84 23.48 21.76C21.8533 21.6533 20.2667 21.6 18.72 21.6C15.7067 21.6 12.7333 21.8 9.8 22.2C9.64 25 9.50667 27.6667 9.4 30.2C9.32 32.7333 9.25333 34.8667 9.2 36.6L2.76 36.76ZM43.8328 37.28C41.6995 37.28 39.8328 36.9333 38.2328 36.24C36.6595 35.5467 35.3528 34.6 34.3128 33.4C33.2728 32.1733 32.4995 30.7733 31.9928 29.2C31.4861 27.6267 31.2328 25.9733 31.2328 24.24C31.2328 22.48 31.5395 20.8533 32.1528 19.36C32.7928 17.84 33.6595 16.52 34.7528 15.4C35.8728 14.28 37.1795 13.4133 38.6728 12.8C40.1661 12.16 41.7928 11.84 43.5528 11.84C45.3928 11.84 47.0995 12.16 48.6728 12.8C50.2461 13.44 51.6195 14.3333 52.7928 15.48C53.9661 16.6267 54.8728 17.9733 55.5128 19.52C56.1795 21.0667 56.5128 22.7467 56.5128 24.56C56.5128 28.5867 55.4061 31.72 53.1928 33.96C50.9795 36.1733 47.8595 37.28 43.8328 37.28ZM43.7928 30.8C45.7395 30.8 47.2195 30.2533 48.2328 29.16C49.2728 28.0667 49.7928 26.4933 49.7928 24.44C49.7928 22.6 49.2328 21.12 48.1128 20C46.9928 18.88 45.5261 18.32 43.7128 18.32C42.6195 18.32 41.6195 18.6133 40.7128 19.2C39.8061 19.76 39.0728 20.52 38.5128 21.48C37.9795 22.4133 37.7128 23.4533 37.7128 24.6C37.7128 25.6133 37.9128 26.6 38.3128 27.56C38.7395 28.52 39.4061 29.3067 40.3128 29.92C41.2195 30.5067 42.3795 30.8 43.7928 30.8ZM67.9281 37.28C65.7948 37.28 63.9281 36.9333 62.3281 36.24C60.7548 35.5467 59.4481 34.6 58.4081 33.4C57.3681 32.1733 56.5948 30.7733 56.0881 29.2C55.5815 27.6267 55.3281 25.9733 55.3281 24.24C55.3281 22.48 55.6348 20.8533 56.2481 19.36C56.8881 17.84 57.7548 16.52 58.8481 15.4C59.9681 14.28 61.2748 13.4133 62.7681 12.8C64.2615 12.16 65.8881 11.84 67.6481 11.84C69.4881 11.84 71.1948 12.16 72.7681 12.8C74.3415 13.44 75.7148 14.3333 76.8881 15.48C78.0615 16.6267 78.9681 17.9733 79.6081 19.52C80.2748 21.0667 80.6081 22.7467 80.6081 24.56C80.6081 28.5867 79.5015 31.72 77.2881 33.96C75.0748 36.1733 71.9548 37.28 67.9281 37.28ZM67.8881 30.8C69.8348 30.8 71.3148 30.2533 72.3281 29.16C73.3681 28.0667 73.8881 26.4933 73.8881 24.44C73.8881 22.6 73.3281 21.12 72.2081 20C71.0881 18.88 69.6215 18.32 67.8081 18.32C66.7148 18.32 65.7148 18.6133 64.8081 19.2C63.9015 19.76 63.1681 20.52 62.6081 21.48C62.0748 22.4133 61.8081 23.4533 61.8081 24.6C61.8081 25.6133 62.0081 26.6 62.4081 27.56C62.8348 28.52 63.5015 29.3067 64.4081 29.92C65.3148 30.5067 66.4748 30.8 67.8881 30.8ZM90.2234 37.16C88.8368 37.16 87.4768 36.92 86.1434 36.44C84.8368 35.96 83.6501 35.2133 82.5834 34.2C81.5434 33.2133 80.7168 31.9733 80.1034 30.48C79.4901 28.96 79.1834 27.1867 79.1834 25.16C79.1834 22.8667 79.5301 20.8933 80.2234 19.24C80.9434 17.56 81.8901 16.1867 83.0634 15.12C84.2368 14.0267 85.5434 13.2133 86.9834 12.68C88.4234 12.1467 89.8634 11.88 91.3034 11.88C92.1568 11.88 92.9701 11.9467 93.7434 12.08C94.5168 12.1867 95.2368 12.3467 95.9034 12.56C95.9834 10.6133 96.0768 8.65333 96.1834 6.68C96.3168 4.70667 96.4634 2.76 96.6234 0.839998L103.343 1.28C103.13 3.49333 102.943 5.88 102.783 8.44C102.623 10.9733 102.503 13.56 102.423 16.2C102.37 18.84 102.343 21.4133 102.343 23.92C102.343 26.2667 102.37 28.5067 102.423 30.64C102.503 32.7467 102.597 34.6667 102.703 36.4L95.7834 36.92C95.7568 36.4133 95.7434 35.92 95.7434 35.44C94.9701 35.9467 94.1168 36.36 93.1834 36.68C92.2768 37 91.2901 37.16 90.2234 37.16ZM85.6234 24.8C85.6234 26.1867 85.8901 27.28 86.4234 28.08C86.9568 28.8533 87.6101 29.4 88.3834 29.72C89.1568 30.04 89.9034 30.2 90.6234 30.2C91.4768 30.2 92.3301 30.0133 93.1834 29.64C94.0368 29.2667 94.8368 28.6133 95.5834 27.68C95.5834 27.36 95.5834 27.0533 95.5834 26.76C95.5834 24.6 95.6101 22.3867 95.6634 20.12C94.4101 19.0267 93.0501 18.48 91.5834 18.48C90.9701 18.48 90.3168 18.5733 89.6234 18.76C88.9301 18.9467 88.2768 19.28 87.6634 19.76C87.0768 20.2133 86.5834 20.8533 86.1834 21.68C85.8101 22.48 85.6234 23.52 85.6234 24.8Z" fill="#9C0D38"/>
<path d="M115.551 36.76C115.524 36.4667 115.511 36.1467 115.511 35.8C115.511 35.4533 115.511 35.0533 115.511 34.6C115.511 33.4533 115.538 32.0933 115.591 30.52C115.644 28.92 115.724 27.2267 115.831 25.44C115.938 23.6267 116.044 21.8133 116.151 20C116.258 18.16 116.364 16.4 116.471 14.72C116.604 13.04 116.724 11.5333 116.831 10.2C116.244 10.3867 115.724 10.56 115.271 10.72L114.231 4C117.244 3.14666 120.044 2.50666 122.631 2.08C125.244 1.65333 127.604 1.44 129.711 1.44C134.004 1.44 137.284 2.25333 139.551 3.88C141.818 5.50667 142.951 7.86667 142.951 10.96C142.951 12.72 142.564 14.2 141.791 15.4C141.018 16.5733 139.924 17.5467 138.511 18.32C141.978 20.08 143.711 22.9467 143.711 26.92C143.711 28.68 143.378 30.16 142.711 31.36C142.071 32.5333 141.244 33.48 140.231 34.2C139.218 34.92 138.138 35.4533 136.991 35.8C135.871 36.1733 134.804 36.4133 133.791 36.52C132.804 36.6533 132.031 36.72 131.471 36.72C130.084 36.72 128.604 36.5867 127.031 36.32C125.458 36.0533 123.924 35.6533 122.431 35.12C122.431 35.6533 122.431 36.16 122.431 36.64L115.551 36.76ZM129.871 8.12C128.911 8.12 127.898 8.17333 126.831 8.28C125.791 8.36 124.751 8.49333 123.711 8.68C123.551 10.6267 123.391 12.8933 123.231 15.48C123.578 15.5067 123.924 15.52 124.271 15.52C124.644 15.52 125.018 15.52 125.391 15.52C132.431 15.52 135.951 14.08 135.951 11.2C135.951 10.24 135.404 9.49333 134.311 8.96C133.244 8.4 131.764 8.12 129.871 8.12ZM126.311 21.84C125.751 21.84 125.178 21.84 124.591 21.84C124.031 21.84 123.458 21.8533 122.871 21.88C122.818 23.0533 122.764 24.2267 122.711 25.4C122.684 26.5733 122.644 27.7333 122.591 28.88C124.084 29.3333 125.551 29.6667 126.991 29.88C128.431 30.0667 129.671 30.16 130.711 30.16C132.924 30.16 134.511 29.8933 135.471 29.36C136.431 28.8 136.911 27.8933 136.911 26.64C136.911 25.0933 135.991 23.9067 134.151 23.08C132.338 22.2533 129.724 21.84 126.311 21.84ZM153.791 37.16C151.791 37.16 149.978 36.64 148.351 35.6C146.725 34.5867 145.431 33.2133 144.471 31.48C143.538 29.72 143.071 27.76 143.071 25.6C143.071 23.5733 143.445 21.7467 144.191 20.12C144.938 18.4667 145.951 17.0533 147.231 15.88C148.538 14.7067 150.018 13.8133 151.671 13.2C153.325 12.56 155.058 12.24 156.871 12.24C158.391 12.24 159.885 12.4533 161.351 12.88C161.458 12.32 161.551 11.76 161.631 11.2L168.471 12.36C168.285 12.8667 168.098 13.6267 167.911 14.64C167.725 15.6533 167.565 16.7867 167.431 18.04C167.325 19.2933 167.231 20.5467 167.151 21.8C167.071 23.0533 167.031 24.1867 167.031 25.2C167.031 26.0267 167.085 26.84 167.191 27.64C167.325 28.4133 167.591 29.0533 167.991 29.56C168.391 30.04 169.005 30.28 169.831 30.28H170.391L169.391 37.24C167.631 37.24 166.178 36.9333 165.031 36.32C163.885 35.7333 162.965 34.9333 162.271 33.92C161.125 35.2 159.818 36.0533 158.351 36.48C156.885 36.9333 155.365 37.16 153.791 37.16ZM149.631 26.4C149.765 27.68 150.285 28.7067 151.191 29.48C152.125 30.2267 153.298 30.6 154.711 30.6C156.071 30.6 157.205 30.24 158.111 29.52C159.018 28.7733 159.765 27.76 160.351 26.48C160.325 26.0533 160.311 25.6133 160.311 25.16C160.311 24.2267 160.338 23.2667 160.391 22.28C160.445 21.2933 160.511 20.32 160.591 19.36C159.471 18.9333 158.298 18.72 157.071 18.72C155.631 18.72 154.338 19.0133 153.191 19.6C152.071 20.16 151.191 20.9467 150.551 21.96C149.911 22.9733 149.591 24.1467 149.591 25.48C149.591 25.64 149.591 25.8 149.591 25.96C149.591 26.12 149.605 26.2667 149.631 26.4ZM169.612 36.88C169.532 34.5333 169.465 32.36 169.412 30.36C169.385 28.36 169.372 26.3867 169.372 24.44C169.372 22.4933 169.385 20.5467 169.412 18.6C169.465 16.6267 169.545 14.52 169.652 12.28H176.412C176.305 13.48 176.212 14.6933 176.132 15.92C177.039 14.7733 178.119 13.8267 179.372 13.08C180.625 12.3067 182.105 11.92 183.812 11.92C185.492 11.92 186.865 12.2 187.932 12.76C189.025 13.32 189.879 14.0933 190.492 15.08C191.132 16.0667 191.585 17.2 191.852 18.48C192.145 19.7333 192.332 21.0933 192.412 22.56C192.492 24 192.532 25.4533 192.532 26.92C192.532 28.52 192.505 30.0533 192.452 31.52C192.399 32.9867 192.345 34.2133 192.292 35.2C192.239 36.1867 192.199 36.7733 192.172 36.96H185.452C185.505 35.8667 185.559 34.7067 185.612 33.48C185.665 32.2267 185.719 31 185.772 29.8C185.825 28.5733 185.852 27.4667 185.852 26.48C185.852 20.8 184.932 17.96 183.092 17.96C181.572 17.96 180.185 18.6267 178.932 19.96C177.705 21.2667 176.679 22.92 175.852 24.92C175.852 25.1867 175.852 25.4533 175.852 25.72C175.852 27 175.852 28.3333 175.852 29.72C175.879 31.08 175.905 32.3867 175.932 33.64C175.985 34.8667 176.025 35.9333 176.052 36.84L169.612 36.88ZM193.12 36.92C193.014 35.64 192.92 34 192.84 32C192.787 30 192.76 27.8267 192.76 25.48C192.76 23.4 192.774 21.2533 192.8 19.04C192.854 16.8267 192.92 14.6533 193 12.52C193.107 10.36 193.214 8.34667 193.32 6.48C193.454 4.58666 193.6 2.93333 193.76 1.52L200.72 2C200.347 4.72 200.054 7.48 199.84 10.28C199.654 13.0533 199.534 15.88 199.48 18.76C200.974 17.72 202.707 16.6267 204.68 15.48C206.68 14.3067 209.08 12.9867 211.88 11.52L215.64 17.8C212.76 18.7067 210.214 19.7467 208 20.92C205.787 22.0667 203.974 23.2267 202.56 24.4C202.294 24.5867 202.12 24.72 202.04 24.8C201.96 24.88 201.92 24.9333 201.92 24.96C201.92 25.12 202.36 25.4133 203.24 25.84C204.414 26.4533 205.627 27.0533 206.88 27.64C208.134 28.2267 209.534 28.8267 211.08 29.44C212.627 30.0267 214.4 30.6533 216.4 31.32L213.64 37.24C211.214 36.52 208.787 35.6133 206.36 34.52C203.934 33.4267 201.734 32.32 199.76 31.2C199.787 32.1067 199.827 33.0267 199.88 33.96C199.96 34.8933 200.027 35.8267 200.08 36.76L193.12 36.92Z" fill="#A5BE00"/>
<path d="M52.344 62.728C52.296 61.32 52.256 60.016 52.224 58.816C52.208 57.616 52.2 56.432 52.2 55.264C52.2 54.096 52.208 52.928 52.224 51.76C52.256 50.576 52.304 49.312 52.368 47.968H56.424C56.36 48.688 56.304 49.416 56.256 50.152C56.8 49.464 57.448 48.896 58.2 48.448C58.952 47.984 59.84 47.752 60.864 47.752C61.872 47.752 62.696 47.92 63.336 48.256C63.992 48.592 64.504 49.056 64.872 49.648C65.256 50.24 65.528 50.92 65.688 51.688C65.864 52.44 65.976 53.256 66.024 54.136C66.072 55 66.096 55.872 66.096 56.752C66.096 57.712 66.08 58.632 66.048 59.512C66.016 60.392 65.984 61.128 65.952 61.72C65.92 62.312 65.896 62.664 65.88 62.776H61.848C61.88 62.12 61.912 61.424 61.944 60.688C61.976 59.936 62.008 59.2 62.04 58.48C62.072 57.744 62.088 57.08 62.088 56.488C62.088 53.08 61.536 51.376 60.432 51.376C59.52 51.376 58.688 51.776 57.936 52.576C57.2 53.36 56.584 54.352 56.088 55.552C56.088 55.712 56.088 55.872 56.088 56.032C56.088 56.8 56.088 57.6 56.088 58.432C56.104 59.248 56.12 60.032 56.136 60.784C56.168 61.52 56.192 62.16 56.208 62.704L52.344 62.728ZM75.6891 62.92C74.1531 62.92 72.8011 62.616 71.6331 62.008C70.4811 61.416 69.5771 60.584 68.9211 59.512C68.2811 58.44 67.9611 57.2 67.9611 55.792C67.9611 54.944 68.1051 54.056 68.3931 53.128C68.6811 52.184 69.1451 51.304 69.7851 50.488C70.4251 49.672 71.2651 49.008 72.3051 48.496C73.3611 47.984 74.6411 47.728 76.1451 47.728C77.2331 47.728 78.1451 47.848 78.8811 48.088C79.6331 48.328 80.2411 48.64 80.7051 49.024C81.1851 49.408 81.5451 49.816 81.7851 50.248C82.0411 50.68 82.2091 51.096 82.2891 51.496C82.3851 51.88 82.4331 52.2 82.4331 52.456C82.4331 54.008 81.7771 55.208 80.4651 56.056C79.1691 56.888 77.3291 57.304 74.9451 57.304C74.4011 57.304 73.8811 57.28 73.3851 57.232C72.9051 57.184 72.4571 57.128 72.0411 57.064C72.3451 57.864 72.8491 58.456 73.5531 58.84C74.2571 59.208 74.9851 59.392 75.7371 59.392C76.8251 59.392 77.7851 59.2 78.6171 58.816C79.4491 58.416 80.2331 57.808 80.9691 56.992L83.1051 60.064C82.5931 60.48 82.0171 60.912 81.3771 61.36C80.7531 61.808 79.9851 62.176 79.0731 62.464C78.1611 62.768 77.0331 62.92 75.6891 62.92ZM76.2171 51.328C75.2731 51.328 74.4411 51.568 73.7211 52.048C73.0011 52.528 72.4731 53.16 72.1371 53.944C72.5371 54.008 72.9291 54.064 73.3131 54.112C73.7131 54.144 74.1051 54.16 74.4891 54.16C74.8411 54.16 75.2411 54.128 75.6891 54.064C76.1531 54 76.6011 53.904 77.0331 53.776C77.4811 53.648 77.8491 53.488 78.1371 53.296C78.4251 53.088 78.5691 52.848 78.5691 52.576C78.5691 52.448 78.5051 52.288 78.3771 52.096C78.2491 51.904 78.0171 51.728 77.6811 51.568C77.3451 51.408 76.8571 51.328 76.2171 51.328ZM92.1645 62.896C91.2045 62.896 90.4445 62.688 89.8845 62.272C89.3245 61.872 88.9165 61.312 88.6605 60.592C88.4045 59.872 88.2365 59.048 88.1565 58.12C88.0925 57.192 88.0605 56.216 88.0605 55.192C88.0605 54.136 88.1005 53.04 88.1805 51.904C87.1085 52.048 86.0765 52.232 85.0845 52.456L84.3405 48.688C85.6685 48.336 87.0845 48.08 88.5885 47.92C88.7005 47.104 88.8205 46.248 88.9485 45.352C89.0765 44.44 89.2205 43.48 89.3805 42.472L93.5085 42.832C93.3165 43.664 93.1485 44.496 93.0045 45.328C92.8605 46.144 92.7325 46.936 92.6205 47.704C93.5165 47.704 94.3565 47.728 95.1405 47.776C95.9405 47.808 96.6765 47.872 97.3485 47.968L96.8685 51.736C96.3085 51.672 95.7245 51.632 95.1165 51.616C94.5245 51.584 93.9245 51.568 93.3165 51.568C92.9485 51.568 92.5805 51.576 92.2125 51.592C92.1165 52.76 92.0525 53.76 92.0205 54.592C92.0045 55.424 91.9965 56.016 91.9965 56.368C91.9965 57.248 92.0445 57.88 92.1405 58.264C92.2525 58.648 92.4285 58.84 92.6685 58.84C92.9405 58.84 93.2445 58.752 93.5805 58.576C93.9165 58.384 94.2445 58.128 94.5645 57.808C94.9005 57.488 95.1805 57.144 95.4045 56.776L97.2525 60.64C95.6685 62.144 93.9725 62.896 92.1645 62.896ZM104.378 62.968C103.05 62.968 101.922 61.936 100.994 59.872C100.674 59.136 100.394 58.328 100.154 57.448C99.9144 56.568 99.7064 55.672 99.5304 54.76C99.3704 53.848 99.2344 52.976 99.1224 52.144C99.0264 51.296 98.9464 50.552 98.8824 49.912C98.8344 49.256 98.7944 48.76 98.7624 48.424L102.698 47.512C102.89 51.144 103.178 53.904 103.562 55.792C103.962 57.68 104.266 58.624 104.474 58.624C104.586 58.624 104.722 58.4 104.882 57.952C105.058 57.504 105.25 56.912 105.458 56.176C105.666 55.424 105.866 54.6 106.058 53.704C106.25 52.808 106.418 51.904 106.562 50.992C106.37 49.824 106.242 48.896 106.178 48.208L110.234 48.064V48.352C110.234 49.008 110.282 49.776 110.378 50.656C110.474 51.536 110.594 52.448 110.738 53.392C110.882 54.32 111.034 55.184 111.194 55.984C111.37 56.784 111.538 57.432 111.698 57.928C111.858 58.424 111.994 58.672 112.106 58.672C112.202 58.672 112.338 58.456 112.514 58.024C112.69 57.592 112.882 57 113.09 56.248C113.314 55.496 113.538 54.64 113.762 53.68C113.986 52.704 114.202 51.68 114.41 50.608C114.618 49.52 114.786 48.44 114.914 47.368L118.874 48.208C118.602 49.728 118.274 51.24 117.89 52.744C117.522 54.232 117.13 55.616 116.714 56.896C116.298 58.16 115.89 59.224 115.49 60.088C114.594 61.992 113.482 62.944 112.154 62.944C111.722 62.944 111.226 62.808 110.666 62.536C110.122 62.28 109.618 61.736 109.154 60.904C108.994 60.6 108.834 60.232 108.674 59.8C108.514 59.368 108.362 58.888 108.218 58.36C108.026 58.952 107.834 59.48 107.642 59.944C106.794 61.96 105.706 62.968 104.378 62.968ZM127.999 62.968C126.719 62.968 125.599 62.76 124.639 62.344C123.695 61.928 122.911 61.36 122.287 60.64C121.663 59.904 121.199 59.064 120.895 58.12C120.591 57.176 120.439 56.184 120.439 55.144C120.439 54.088 120.623 53.112 120.991 52.216C121.375 51.304 121.895 50.512 122.551 49.84C123.223 49.168 124.007 48.648 124.903 48.28C125.799 47.896 126.775 47.704 127.831 47.704C128.935 47.704 129.959 47.896 130.903 48.28C131.847 48.664 132.671 49.2 133.375 49.888C134.079 50.576 134.623 51.384 135.007 52.312C135.407 53.24 135.607 54.248 135.607 55.336C135.607 57.752 134.943 59.632 133.615 60.976C132.287 62.304 130.415 62.968 127.999 62.968ZM127.975 59.08C129.143 59.08 130.031 58.752 130.639 58.096C131.263 57.44 131.575 56.496 131.575 55.264C131.575 54.16 131.239 53.272 130.567 52.6C129.895 51.928 129.015 51.592 127.927 51.592C127.271 51.592 126.671 51.768 126.127 52.12C125.583 52.456 125.143 52.912 124.807 53.488C124.487 54.048 124.327 54.672 124.327 55.36C124.327 55.968 124.447 56.56 124.687 57.136C124.943 57.712 125.343 58.184 125.887 58.552C126.431 58.904 127.127 59.08 127.975 59.08ZM137.392 62.872C137.456 61.544 137.504 60.216 137.536 58.888C137.568 57.56 137.584 56.248 137.584 54.952C137.568 53.768 137.544 52.6 137.512 51.448C137.496 50.28 137.456 49.152 137.392 48.064L141.424 47.944C141.44 48.536 141.464 49.144 141.496 49.768C142.008 49.128 142.6 48.616 143.272 48.232C143.96 47.832 144.744 47.632 145.624 47.632C145.96 47.632 146.392 47.68 146.92 47.776C147.448 47.872 147.984 48.056 148.528 48.328L148.072 52.384C147.672 52.144 147.24 51.976 146.776 51.88C146.328 51.768 145.952 51.712 145.648 51.712C144.624 51.712 143.752 52.176 143.032 53.104C142.328 54.016 141.848 55.288 141.592 56.92C141.592 58.04 141.576 59.112 141.544 60.136C141.528 61.144 141.488 62.056 141.424 62.872H137.392ZM149.679 62.752C149.615 61.984 149.559 61 149.511 59.8C149.479 58.6 149.463 57.296 149.463 55.888C149.463 54.64 149.471 53.352 149.487 52.024C149.519 50.696 149.559 49.392 149.607 48.112C149.671 46.816 149.735 45.608 149.799 44.488C149.879 43.352 149.967 42.36 150.063 41.512L154.239 41.8C154.015 43.432 153.839 45.088 153.711 46.768C153.599 48.432 153.527 50.128 153.495 51.856C154.391 51.232 155.431 50.576 156.615 49.888C157.815 49.184 159.255 48.392 160.935 47.512L163.191 51.28C161.463 51.824 159.935 52.448 158.607 53.152C157.279 53.84 156.191 54.536 155.343 55.24C155.183 55.352 155.079 55.432 155.031 55.48C154.983 55.528 154.959 55.56 154.959 55.576C154.959 55.672 155.223 55.848 155.751 56.104C156.455 56.472 157.183 56.832 157.935 57.184C158.687 57.536 159.527 57.896 160.455 58.264C161.383 58.616 162.447 58.992 163.647 59.392L161.991 62.944C160.535 62.512 159.079 61.968 157.623 61.312C156.167 60.656 154.847 59.992 153.663 59.32C153.679 59.864 153.703 60.416 153.735 60.976C153.783 61.536 153.823 62.096 153.855 62.656L149.679 62.752Z" fill="#3E442B"/>
</svg>
