<svg width="342" height="96" viewBox="0 0 342 96" fill="none" xmlns="http://www.w3.org/2000/svg">
<path d="M4.416 58.416C4.37333 58.0747 4.33067 57.6267 4.288 57.072C4.288 56.5173 4.288 55.8773 4.288 55.152C4.288 53.4027 4.33067 51.2693 4.416 48.752C4.544 46.192 4.69333 43.4187 4.864 40.432C5.03467 37.4027 5.22667 34.352 5.44 31.28C5.65333 28.1653 5.86667 25.1787 6.08 22.32C6.336 19.4187 6.57067 16.8373 6.784 14.576C6.10133 14.6613 5.44 14.7467 4.8 14.832L3.392 3.952C7.82933 3.35466 12.544 2.928 17.536 2.672C22.5707 2.416 27.4773 2.288 32.256 2.288C35.84 2.288 39.2747 2.37333 42.56 2.544C45.888 2.672 48.8747 2.864 51.52 3.12L50.56 13.744C48.5973 13.36 46.3573 13.104 43.84 12.976C41.3227 12.8053 38.6133 12.72 35.712 12.72C32.7253 12.72 29.632 12.8053 26.432 12.976C23.2747 13.104 20.2027 13.2747 17.216 13.488C17.0453 15.1947 16.8747 16.9653 16.704 18.8C16.576 20.6347 16.448 22.5333 16.32 24.496C18.5387 24.1973 20.992 23.984 23.68 23.856C26.4107 23.728 29.12 23.664 31.808 23.664C34.88 23.664 37.76 23.7493 40.448 23.92C43.1787 24.0907 45.2693 24.3893 46.72 24.816L45.952 35.12C42.9653 34.7787 40.1707 34.544 37.568 34.416C34.9653 34.2453 32.4267 34.16 29.952 34.16C25.1307 34.16 20.3733 34.48 15.68 35.12C15.424 39.6 15.2107 43.8667 15.04 47.92C14.912 51.9733 14.8053 55.3867 14.72 58.16L4.416 58.416ZM69.4925 59.248C66.0792 59.248 63.0925 58.6933 60.5325 57.584C58.0152 56.4747 55.9245 54.96 54.2605 53.04C52.5965 51.0773 51.3592 48.8373 50.5485 46.32C49.7378 43.8027 49.3325 41.1573 49.3325 38.384C49.3325 35.568 49.8232 32.9653 50.8045 30.576C51.8285 28.144 53.2152 26.032 54.9645 24.24C56.7565 22.448 58.8472 21.0613 61.2365 20.08C63.6258 19.056 66.2285 18.544 69.0445 18.544C71.9885 18.544 74.7192 19.056 77.2365 20.08C79.7538 21.104 81.9512 22.5333 83.8285 24.368C85.7058 26.2027 87.1565 28.3573 88.1805 30.832C89.2472 33.3067 89.7805 35.9947 89.7805 38.896C89.7805 45.3387 88.0098 50.352 84.4685 53.936C80.9272 57.4773 75.9352 59.248 69.4925 59.248ZM69.4285 48.88C72.5432 48.88 74.9112 48.0053 76.5325 46.256C78.1965 44.5067 79.0285 41.9893 79.0285 38.704C79.0285 35.76 78.1325 33.392 76.3405 31.6C74.5485 29.808 72.2018 28.912 69.3005 28.912C67.5512 28.912 65.9512 29.3813 64.5005 30.32C63.0498 31.216 61.8765 32.432 60.9805 33.968C60.1272 35.4613 59.7005 37.1253 59.7005 38.96C59.7005 40.5813 60.0205 42.16 60.6605 43.696C61.3432 45.232 62.4098 46.4907 63.8605 47.472C65.3112 48.4107 67.1672 48.88 69.4285 48.88ZM107.405 59.248C103.992 59.248 101.005 58.6933 98.445 57.584C95.9277 56.4747 93.837 54.96 92.173 53.04C90.509 51.0773 89.2717 48.8373 88.461 46.32C87.6503 43.8027 87.245 41.1573 87.245 38.384C87.245 35.568 87.7357 32.9653 88.717 30.576C89.741 28.144 91.1277 26.032 92.877 24.24C94.669 22.448 96.7597 21.0613 99.149 20.08C101.538 19.056 104.141 18.544 106.957 18.544C109.901 18.544 112.632 19.056 115.149 20.08C117.666 21.104 119.864 22.5333 121.741 24.368C123.618 26.2027 125.069 28.3573 126.093 30.832C127.16 33.3067 127.693 35.9947 127.693 38.896C127.693 45.3387 125.922 50.352 122.381 53.936C118.84 57.4773 113.848 59.248 107.405 59.248ZM107.341 48.88C110.456 48.88 112.824 48.0053 114.445 46.256C116.109 44.5067 116.941 41.9893 116.941 38.704C116.941 35.76 116.045 33.392 114.253 31.6C112.461 29.808 110.114 28.912 107.213 28.912C105.464 28.912 103.864 29.3813 102.413 30.32C100.962 31.216 99.789 32.432 98.893 33.968C98.0397 35.4613 97.613 37.1253 97.613 38.96C97.613 40.5813 97.933 42.16 98.573 43.696C99.2557 45.232 100.322 46.4907 101.773 47.472C103.224 48.4107 105.08 48.88 107.341 48.88ZM142.438 59.056C140.219 59.056 138.043 58.672 135.91 57.904C133.819 57.136 131.92 55.9413 130.214 54.32C128.55 52.7413 127.227 50.7573 126.246 48.368C125.264 45.936 124.774 43.0987 124.774 39.856C124.774 36.1867 125.328 33.0293 126.438 30.384C127.59 27.696 129.104 25.4987 130.982 23.792C132.859 22.0427 134.95 20.7413 137.254 19.888C139.558 19.0347 141.862 18.608 144.166 18.608C145.531 18.608 146.832 18.7147 148.07 18.928C149.307 19.0987 150.459 19.3547 151.526 19.696C151.654 16.5813 151.803 13.4453 151.974 10.288C152.187 7.13066 152.422 4.016 152.678 0.943996L163.43 1.648C163.088 5.18933 162.79 9.008 162.534 13.104C162.278 17.1573 162.086 21.296 161.958 25.52C161.872 29.744 161.83 33.8613 161.83 37.872C161.83 41.6267 161.872 45.2107 161.958 48.624C162.086 51.9947 162.235 55.0667 162.406 57.84L151.334 58.672C151.291 57.8613 151.27 57.072 151.27 56.304C150.032 57.1147 148.667 57.776 147.174 58.288C145.723 58.8 144.144 59.056 142.438 59.056ZM135.078 39.28C135.078 41.4987 135.504 43.248 136.358 44.528C137.211 45.7653 138.256 46.64 139.494 47.152C140.731 47.664 141.926 47.92 143.078 47.92C144.443 47.92 145.808 47.6213 147.174 47.024C148.539 46.4267 149.819 45.3813 151.014 43.888C151.014 43.376 151.014 42.8853 151.014 42.416C151.014 38.96 151.056 35.4187 151.142 31.792C149.136 30.0427 146.96 29.168 144.614 29.168C143.632 29.168 142.587 29.3173 141.478 29.616C140.368 29.9147 139.323 30.448 138.342 31.216C137.403 31.9413 136.614 32.9653 135.974 34.288C135.376 35.568 135.078 37.232 135.078 39.28Z" fill="#9C0D38"/>
<path d="M181.042 58.416C180.999 57.9467 180.978 57.4347 180.978 56.88C180.978 56.3253 180.978 55.6853 180.978 54.96C180.978 53.1253 181.02 50.9493 181.106 48.432C181.191 45.872 181.319 43.1627 181.49 40.304C181.66 37.4027 181.831 34.5013 182.002 31.6C182.172 28.656 182.343 25.84 182.514 23.152C182.727 20.464 182.919 18.0533 183.09 15.92C182.151 16.2187 181.319 16.496 180.594 16.752L178.93 6C183.751 4.63466 188.231 3.61066 192.37 2.928C196.551 2.24533 200.327 1.904 203.698 1.904C210.567 1.904 215.815 3.20533 219.442 5.808C223.068 8.41066 224.882 12.1867 224.882 17.136C224.882 19.952 224.263 22.32 223.026 24.24C221.788 26.1173 220.039 27.6747 217.778 28.912C223.324 31.728 226.098 36.3147 226.098 42.672C226.098 45.488 225.564 47.856 224.498 49.776C223.474 51.6533 222.151 53.168 220.53 54.32C218.908 55.472 217.18 56.3253 215.346 56.88C213.554 57.4773 211.847 57.8613 210.226 58.032C208.647 58.2453 207.41 58.352 206.514 58.352C204.295 58.352 201.927 58.1387 199.41 57.712C196.892 57.2853 194.439 56.6453 192.05 55.792C192.05 56.6453 192.05 57.456 192.05 58.224L181.042 58.416ZM203.954 12.592C202.418 12.592 200.796 12.6773 199.09 12.848C197.426 12.976 195.762 13.1893 194.098 13.488C193.842 16.6027 193.586 20.2293 193.33 24.368C193.884 24.4107 194.439 24.432 194.994 24.432C195.591 24.432 196.188 24.432 196.786 24.432C208.05 24.432 213.682 22.128 213.682 17.52C213.682 15.984 212.807 14.7893 211.058 13.936C209.351 13.04 206.983 12.592 203.954 12.592ZM198.258 34.544C197.362 34.544 196.444 34.544 195.506 34.544C194.61 34.544 193.692 34.5653 192.754 34.608C192.668 36.4853 192.583 38.3627 192.498 40.24C192.455 42.1173 192.391 43.9733 192.306 45.808C194.695 46.5333 197.042 47.0667 199.346 47.408C201.65 47.7067 203.634 47.856 205.298 47.856C208.839 47.856 211.378 47.4293 212.914 46.576C214.45 45.68 215.218 44.2293 215.218 42.224C215.218 39.7493 213.746 37.8507 210.802 36.528C207.9 35.2053 203.719 34.544 198.258 34.544ZM241.586 59.056C238.386 59.056 235.485 58.224 232.882 56.56C230.279 54.9387 228.21 52.7413 226.674 49.968C225.181 47.152 224.434 44.016 224.434 40.56C224.434 37.3173 225.031 34.3947 226.226 31.792C227.421 29.1467 229.042 26.8853 231.09 25.008C233.181 23.1307 235.549 21.7013 238.194 20.72C240.839 19.696 243.613 19.184 246.514 19.184C248.946 19.184 251.335 19.5253 253.682 20.208C253.853 19.312 254.002 18.416 254.13 17.52L265.074 19.376C264.775 20.1867 264.477 21.4027 264.178 23.024C263.879 24.6453 263.623 26.4587 263.41 28.464C263.239 30.4693 263.09 32.4747 262.962 34.48C262.834 36.4853 262.77 38.2987 262.77 39.92C262.77 41.2427 262.855 42.544 263.026 43.824C263.239 45.0613 263.666 46.0853 264.306 46.896C264.946 47.664 265.927 48.048 267.25 48.048H268.146L266.546 59.184C263.73 59.184 261.405 58.6933 259.57 57.712C257.735 56.7733 256.263 55.4933 255.154 53.872C253.319 55.92 251.229 57.2853 248.882 57.968C246.535 58.6933 244.103 59.056 241.586 59.056ZM234.93 41.84C235.143 43.888 235.975 45.5307 237.426 46.768C238.919 47.9627 240.797 48.56 243.058 48.56C245.234 48.56 247.047 47.984 248.498 46.832C249.949 45.6373 251.143 44.016 252.082 41.968C252.039 41.2853 252.018 40.5813 252.018 39.856C252.018 38.3627 252.061 36.8267 252.146 35.248C252.231 33.6693 252.338 32.112 252.466 30.576C250.674 29.8933 248.797 29.552 246.834 29.552C244.53 29.552 242.461 30.0213 240.626 30.96C238.834 31.856 237.426 33.1147 236.402 34.736C235.378 36.3573 234.866 38.2347 234.866 40.368C234.866 40.624 234.866 40.88 234.866 41.136C234.866 41.392 234.887 41.6267 234.93 41.84ZM266.259 58.608C266.131 54.8533 266.024 51.376 265.939 48.176C265.896 44.976 265.875 41.8187 265.875 38.704C265.875 35.5893 265.896 32.4747 265.939 29.36C266.024 26.2027 266.152 22.832 266.323 19.248H277.139C276.968 21.168 276.819 23.1093 276.691 25.072C278.142 23.2373 279.87 21.7227 281.875 20.528C283.88 19.2907 286.248 18.672 288.979 18.672C291.667 18.672 293.864 19.12 295.571 20.016C297.32 20.912 298.686 22.1493 299.667 23.728C300.691 25.3067 301.416 27.12 301.843 29.168C302.312 31.1733 302.611 33.3493 302.739 35.696C302.867 38 302.931 40.3253 302.931 42.672C302.931 45.232 302.888 47.6853 302.803 50.032C302.718 52.3787 302.632 54.3413 302.547 55.92C302.462 57.4987 302.398 58.4373 302.355 58.736H291.603C291.688 56.9867 291.774 55.1307 291.859 53.168C291.944 51.1627 292.03 49.2 292.115 47.28C292.2 45.3173 292.243 43.5467 292.243 41.968C292.243 32.88 290.771 28.336 287.827 28.336C285.395 28.336 283.176 29.4027 281.171 31.536C279.208 33.6267 277.566 36.272 276.243 39.472C276.243 39.8987 276.243 40.3253 276.243 40.752C276.243 42.8 276.243 44.9333 276.243 47.152C276.286 49.328 276.328 51.4187 276.371 53.424C276.456 55.3867 276.52 57.0933 276.563 58.544L266.259 58.608ZM303.232 58.672C303.062 56.624 302.912 54 302.784 50.8C302.699 47.6 302.656 44.1227 302.656 40.368C302.656 37.04 302.678 33.6053 302.72 30.064C302.806 26.5227 302.912 23.0453 303.04 19.632C303.211 16.176 303.382 12.9547 303.552 9.968C303.766 6.93866 304 4.29333 304.256 2.032L315.392 2.8C314.795 7.152 314.326 11.568 313.984 16.048C313.686 20.4853 313.494 25.008 313.408 29.616C315.798 27.952 318.571 26.2027 321.728 24.368C324.928 22.4907 328.768 20.3787 333.248 18.032L339.264 28.08C334.656 29.5307 330.582 31.1947 327.04 33.072C323.499 34.9067 320.598 36.7627 318.336 38.64C317.91 38.9387 317.632 39.152 317.504 39.28C317.376 39.408 317.312 39.4933 317.312 39.536C317.312 39.792 318.016 40.2613 319.424 40.944C321.302 41.9253 323.243 42.8853 325.248 43.824C327.254 44.7627 329.494 45.7227 331.968 46.704C334.443 47.6427 337.28 48.6453 340.48 49.712L336.064 59.184C332.182 58.032 328.299 56.5813 324.416 54.832C320.534 53.0827 317.014 51.312 313.856 49.52C313.899 50.9707 313.963 52.4427 314.048 53.936C314.176 55.4293 314.283 56.9227 314.368 58.416L303.232 58.672Z" fill="#A5BE00"/>
<path d="M79.24 94.88C79.16 92.5333 79.0933 90.36 79.04 88.36C79.0133 86.36 79 84.3867 79 82.44C79 80.4933 79.0133 78.5467 79.04 76.6C79.0933 74.6267 79.1733 72.52 79.28 70.28H86.04C85.9333 71.48 85.84 72.6933 85.76 73.92C86.6667 72.7733 87.7467 71.8267 89 71.08C90.2533 70.3067 91.7333 69.92 93.44 69.92C95.12 69.92 96.4933 70.2 97.56 70.76C98.6533 71.32 99.5067 72.0933 100.12 73.08C100.76 74.0667 101.213 75.2 101.48 76.48C101.773 77.7333 101.96 79.0933 102.04 80.56C102.12 82 102.16 83.4533 102.16 84.92C102.16 86.52 102.133 88.0533 102.08 89.52C102.027 90.9867 101.973 92.2133 101.92 93.2C101.867 94.1867 101.827 94.7733 101.8 94.96H95.08C95.1333 93.8667 95.1867 92.7067 95.24 91.48C95.2933 90.2267 95.3467 89 95.4 87.8C95.4533 86.5733 95.48 85.4667 95.48 84.48C95.48 78.8 94.56 75.96 92.72 75.96C91.2 75.96 89.8133 76.6267 88.56 77.96C87.3333 79.2667 86.3067 80.92 85.48 82.92C85.48 83.1867 85.48 83.4533 85.48 83.72C85.48 85 85.48 86.3333 85.48 87.72C85.5067 89.08 85.5333 90.3867 85.56 91.64C85.6133 92.8667 85.6533 93.9333 85.68 94.84L79.24 94.88ZM118.148 95.2C115.588 95.2 113.335 94.6933 111.388 93.68C109.468 92.6933 107.962 91.3067 106.868 89.52C105.802 87.7333 105.268 85.6667 105.268 83.32C105.268 81.9067 105.508 80.4267 105.988 78.88C106.468 77.3067 107.242 75.84 108.308 74.48C109.375 73.12 110.775 72.0133 112.508 71.16C114.268 70.3067 116.402 69.88 118.908 69.88C120.722 69.88 122.242 70.08 123.468 70.48C124.722 70.88 125.735 71.4 126.508 72.04C127.308 72.68 127.908 73.36 128.308 74.08C128.735 74.8 129.015 75.4933 129.148 76.16C129.308 76.8 129.388 77.3333 129.388 77.76C129.388 80.3467 128.295 82.3467 126.108 83.76C123.948 85.1467 120.882 85.84 116.908 85.84C116.002 85.84 115.135 85.8 114.308 85.72C113.508 85.64 112.762 85.5467 112.068 85.44C112.575 86.7733 113.415 87.76 114.588 88.4C115.762 89.0133 116.975 89.32 118.228 89.32C120.042 89.32 121.642 89 123.028 88.36C124.415 87.6933 125.722 86.68 126.948 85.32L130.508 90.44C129.655 91.1333 128.695 91.8533 127.628 92.6C126.588 93.3467 125.308 93.96 123.788 94.44C122.268 94.9467 120.388 95.2 118.148 95.2ZM119.028 75.88C117.455 75.88 116.068 76.28 114.868 77.08C113.668 77.88 112.788 78.9333 112.228 80.24C112.895 80.3467 113.548 80.44 114.188 80.52C114.855 80.5733 115.508 80.6 116.148 80.6C116.735 80.6 117.402 80.5467 118.148 80.44C118.922 80.3333 119.668 80.1733 120.388 79.96C121.135 79.7467 121.748 79.48 122.228 79.16C122.708 78.8133 122.948 78.4133 122.948 77.96C122.948 77.7467 122.842 77.48 122.628 77.16C122.415 76.84 122.028 76.5467 121.468 76.28C120.908 76.0133 120.095 75.88 119.028 75.88ZM145.608 95.16C144.008 95.16 142.741 94.8133 141.808 94.12C140.874 93.4533 140.194 92.52 139.768 91.32C139.341 90.12 139.061 88.7467 138.928 87.2C138.821 85.6533 138.768 84.0267 138.768 82.32C138.768 80.56 138.834 78.7333 138.968 76.84C137.181 77.08 135.461 77.3867 133.808 77.76L132.568 71.48C134.781 70.8933 137.141 70.4667 139.648 70.2C139.834 68.84 140.034 67.4133 140.248 65.92C140.461 64.4 140.701 62.8 140.968 61.12L147.848 61.72C147.528 63.1067 147.248 64.4933 147.008 65.88C146.768 67.24 146.554 68.56 146.368 69.84C147.861 69.84 149.261 69.88 150.568 69.96C151.901 70.0133 153.128 70.12 154.248 70.28L153.448 76.56C152.514 76.4533 151.541 76.3867 150.528 76.36C149.541 76.3067 148.541 76.28 147.528 76.28C146.914 76.28 146.301 76.2933 145.688 76.32C145.528 78.2667 145.421 79.9333 145.368 81.32C145.341 82.7067 145.328 83.6933 145.328 84.28C145.328 85.7467 145.408 86.8 145.568 87.44C145.754 88.08 146.048 88.4 146.448 88.4C146.901 88.4 147.408 88.2533 147.968 87.96C148.528 87.64 149.074 87.2133 149.608 86.68C150.168 86.1467 150.634 85.5733 151.008 84.96L154.088 91.4C151.448 93.9067 148.621 95.16 145.608 95.16ZM165.964 95.28C163.751 95.28 161.871 93.56 160.324 90.12C159.791 88.8933 159.324 87.5467 158.924 86.08C158.524 84.6133 158.177 83.12 157.884 81.6C157.617 80.08 157.391 78.6267 157.204 77.24C157.044 75.8267 156.911 74.5867 156.804 73.52C156.724 72.4267 156.657 71.6 156.604 71.04L163.164 69.52C163.484 75.5733 163.964 80.1733 164.604 83.32C165.271 86.4667 165.777 88.04 166.124 88.04C166.311 88.04 166.537 87.6667 166.804 86.92C167.097 86.1733 167.417 85.1867 167.764 83.96C168.111 82.7067 168.444 81.3333 168.764 79.84C169.084 78.3467 169.364 76.84 169.604 75.32C169.284 73.3733 169.071 71.8267 168.964 70.68L175.724 70.44V70.92C175.724 72.0133 175.804 73.2933 175.964 74.76C176.124 76.2267 176.324 77.7467 176.564 79.32C176.804 80.8667 177.057 82.3067 177.324 83.64C177.617 84.9733 177.897 86.0533 178.164 86.88C178.431 87.7067 178.657 88.12 178.844 88.12C179.004 88.12 179.231 87.76 179.524 87.04C179.817 86.32 180.137 85.3333 180.484 84.08C180.857 82.8267 181.231 81.4 181.604 79.8C181.977 78.1733 182.337 76.4667 182.684 74.68C183.031 72.8667 183.311 71.0667 183.524 69.28L190.124 70.68C189.671 73.2133 189.124 75.7333 188.484 78.24C187.871 80.72 187.217 83.0267 186.524 85.16C185.831 87.2667 185.151 89.04 184.484 90.48C182.991 93.6533 181.137 95.24 178.924 95.24C178.204 95.24 177.377 95.0133 176.444 94.56C175.537 94.1333 174.697 93.2267 173.924 91.84C173.657 91.3333 173.391 90.72 173.124 90C172.857 89.28 172.604 88.48 172.364 87.6C172.044 88.5867 171.724 89.4667 171.404 90.24C169.991 93.6 168.177 95.28 165.964 95.28ZM205.331 95.28C203.198 95.28 201.331 94.9333 199.731 94.24C198.158 93.5467 196.851 92.6 195.811 91.4C194.771 90.1733 193.998 88.7733 193.491 87.2C192.985 85.6267 192.731 83.9733 192.731 82.24C192.731 80.48 193.038 78.8533 193.651 77.36C194.291 75.84 195.158 74.52 196.251 73.4C197.371 72.28 198.678 71.4133 200.171 70.8C201.665 70.16 203.291 69.84 205.051 69.84C206.891 69.84 208.598 70.16 210.171 70.8C211.745 71.44 213.118 72.3333 214.291 73.48C215.465 74.6267 216.371 75.9733 217.011 77.52C217.678 79.0667 218.011 80.7467 218.011 82.56C218.011 86.5867 216.905 89.72 214.691 91.96C212.478 94.1733 209.358 95.28 205.331 95.28ZM205.291 88.8C207.238 88.8 208.718 88.2533 209.731 87.16C210.771 86.0667 211.291 84.4933 211.291 82.44C211.291 80.6 210.731 79.12 209.611 78C208.491 76.88 207.025 76.32 205.211 76.32C204.118 76.32 203.118 76.6133 202.211 77.2C201.305 77.76 200.571 78.52 200.011 79.48C199.478 80.4133 199.211 81.4533 199.211 82.6C199.211 83.6133 199.411 84.6 199.811 85.56C200.238 86.52 200.905 87.3067 201.811 87.92C202.718 88.5067 203.878 88.8 205.291 88.8ZM220.987 95.12C221.093 92.9067 221.173 90.6933 221.227 88.48C221.28 86.2667 221.307 84.08 221.307 81.92C221.28 79.9467 221.24 78 221.187 76.08C221.16 74.1333 221.093 72.2533 220.987 70.44L227.707 70.24C227.733 71.2267 227.773 72.24 227.827 73.28C228.68 72.2133 229.667 71.36 230.787 70.72C231.933 70.0533 233.24 69.72 234.707 69.72C235.267 69.72 235.987 69.8 236.867 69.96C237.747 70.12 238.64 70.4267 239.547 70.88L238.787 77.64C238.12 77.24 237.4 76.96 236.627 76.8C235.88 76.6133 235.253 76.52 234.747 76.52C233.04 76.52 231.587 77.2933 230.387 78.84C229.213 80.36 228.413 82.48 227.987 85.2C227.987 87.0667 227.96 88.8533 227.907 90.56C227.88 92.24 227.813 93.76 227.707 95.12H220.987ZM241.466 94.92C241.359 93.64 241.266 92 241.186 90C241.132 88 241.106 85.8267 241.106 83.48C241.106 81.4 241.119 79.2533 241.146 77.04C241.199 74.8267 241.266 72.6533 241.346 70.52C241.452 68.36 241.559 66.3467 241.666 64.48C241.799 62.5867 241.946 60.9333 242.106 59.52L249.066 60C248.692 62.72 248.399 65.48 248.186 68.28C247.999 71.0533 247.879 73.88 247.826 76.76C249.319 75.72 251.052 74.6267 253.026 73.48C255.026 72.3067 257.426 70.9867 260.226 69.52L263.986 75.8C261.106 76.7067 258.559 77.7467 256.346 78.92C254.132 80.0667 252.319 81.2267 250.906 82.4C250.639 82.5867 250.466 82.72 250.386 82.8C250.306 82.88 250.266 82.9333 250.266 82.96C250.266 83.12 250.706 83.4133 251.586 83.84C252.759 84.4533 253.972 85.0533 255.226 85.64C256.479 86.2267 257.879 86.8267 259.426 87.44C260.972 88.0267 262.746 88.6533 264.746 89.32L261.986 95.24C259.559 94.52 257.132 93.6133 254.706 92.52C252.279 91.4267 250.079 90.32 248.106 89.2C248.132 90.1067 248.172 91.0267 248.226 91.96C248.306 92.8933 248.372 93.8267 248.426 94.76L241.466 94.92Z" fill="#3E442B"/>
</svg>
